<svg width="749" height="128" viewBox="0 0 749 128" fill="none" xmlns="http://www.w3.org/2000/svg">
<path d="M0 0H749V128H0V0Z" fill="#FF6F0F"/>
<ellipse cx="515.44" cy="68.3248" rx="36.44" ry="30.6752" fill="white"/>
<ellipse cx="14.1363" cy="21.7014" rx="14.1363" ry="21.7014" transform="matrix(0.832348 0.554253 -0.590048 0.807368 538.467 17.3822)" fill="white"/>
<ellipse cx="14.1363" cy="21.7014" rx="14.1363" ry="21.7014" transform="matrix(0.832348 0.554253 -0.590048 0.807368 512.644 13)" fill="white"/>
<ellipse cx="515.44" cy="69.6943" rx="28.406" ry="20.5414" fill="#FFF2E8"/>
<g filter="url(#filter0_d_5_5)">
<ellipse cx="497.363" cy="49.1529" rx="14.3465" ry="13.1465" fill="#25B69E"/>
</g>
<g filter="url(#filter1_d_5_5)">
<ellipse cx="532.943" cy="50.7962" rx="14.3465" ry="13.1465" fill="#25B69E"/>
</g>
<ellipse cx="515.727" cy="45.5924" rx="14.3465" ry="16.707" fill="#25B69E"/>
<ellipse cx="504.537" cy="69.6943" rx="3.15622" ry="5.75159" fill="black"/>
<ellipse cx="521.753" cy="69.6943" rx="3.15622" ry="5.75159" fill="black"/>
<ellipse cx="512.858" cy="77.3631" rx="3.44315" ry="1.9172" fill="#564E4E"/>
<path d="M513.224 68.1068C513.224 75.6497 506.833 81.801 498.903 81.801C490.973 81.801 484.582 75.6497 484.582 68.1068C484.582 60.5639 490.973 54.4126 498.903 54.4126C506.833 54.4126 513.224 60.5639 513.224 68.1068Z" stroke="#6B007D"/>
<path d="M542.867 68.1068C542.867 75.6497 536.476 81.801 528.546 81.801C520.616 81.801 514.224 75.6497 514.224 68.1068C514.224 60.5639 520.616 54.4126 528.546 54.4126C536.476 54.4126 542.867 60.5639 542.867 68.1068Z" stroke="#6B007D"/>
<path d="M239.384 50.216H243.672V67.304H239.384V50.216ZM242.424 57.224H247.544V60.68H242.424V57.224ZM233.944 67.848C240.024 67.848 243.96 70.12 243.96 73.864C243.96 77.64 240.024 79.88 233.944 79.88C227.832 79.88 223.896 77.64 223.896 73.864C223.896 70.12 227.832 67.848 233.944 67.848ZM233.944 71.24C230.168 71.24 228.088 72.072 228.088 73.864C228.088 75.624 230.168 76.488 233.944 76.488C237.688 76.488 239.768 75.624 239.768 73.864C239.768 72.072 237.688 71.24 233.944 71.24ZM221.304 62.376H223.768C230.296 62.376 233.528 62.216 237.08 61.448L237.496 64.84C233.88 65.64 230.456 65.768 223.768 65.768H221.304V62.376ZM221.304 52.2H234.552V55.592H225.528V64.68H221.304V52.2ZM253.014 51.848H271.734V55.24H253.014V51.848ZM249.75 63.304H276.566V66.728H249.75V63.304ZM269.238 51.848H273.43V54.408C273.43 57.224 273.43 60.36 272.502 64.616L268.31 64.232C269.238 60.104 269.238 57.16 269.238 54.408V51.848ZM253.11 75.912H274.262V79.336H253.11V75.912ZM253.11 69.256H257.334V76.264H253.11V69.256ZM289.701 51.848H308.421V55.24H289.701V51.848ZM286.437 63.304H313.253V66.728H286.437V63.304ZM305.925 51.848H310.117V54.408C310.117 57.224 310.117 60.36 309.189 64.616L304.997 64.232C305.925 60.104 305.925 57.16 305.925 54.408V51.848ZM289.797 75.912H310.949V79.336H289.797V75.912ZM289.797 69.256H294.021V76.264H289.797V69.256ZM336.451 50.184H340.707V79.912H336.451V50.184ZM331.235 61.576H337.411V65H331.235V61.576ZM322.691 57.896H326.019V59.432C326.019 65.672 323.331 71.976 317.955 74.376L315.683 71.112C320.483 68.904 322.691 63.88 322.691 59.432V57.896ZM323.619 57.896H326.915V59.432C326.915 63.688 329.187 68.488 333.987 70.632L331.747 73.864C326.307 71.56 323.619 65.48 323.619 59.432V57.896ZM316.674 55.048H332.835V58.408H316.674V55.048ZM322.691 50.888H326.947V56.776H322.691V50.888ZM354.816 52.168C359.488 52.168 362.976 55.208 362.976 59.464C362.976 63.752 359.488 66.792 354.816 66.792C350.176 66.792 346.624 63.752 346.624 59.464C346.624 55.208 350.176 52.168 354.816 52.168ZM354.816 55.816C352.544 55.816 350.816 57.16 350.816 59.464C350.816 61.8 352.544 63.144 354.816 63.144C357.088 63.144 358.816 61.8 358.816 59.464C358.816 57.16 357.088 55.816 354.816 55.816ZM365.76 50.184H370.016V79.912H365.76V50.184ZM345.92 73.896L345.408 70.472C350.624 70.472 357.888 70.408 364.128 69.48L364.448 72.552C358.016 73.832 351.04 73.896 345.92 73.896ZM401.072 50.216H405.36V67.304H401.072V50.216ZM404.112 57.224H409.232V60.68H404.112V57.224ZM395.632 67.848C401.712 67.848 405.648 70.12 405.648 73.864C405.648 77.64 401.712 79.88 395.632 79.88C389.52 79.88 385.584 77.64 385.584 73.864C385.584 70.12 389.52 67.848 395.632 67.848ZM395.632 71.24C391.856 71.24 389.776 72.072 389.776 73.864C389.776 75.624 391.856 76.488 395.632 76.488C399.376 76.488 401.456 75.624 401.456 73.864C401.456 72.072 399.376 71.24 395.632 71.24ZM382.992 62.376H385.456C391.984 62.376 395.216 62.216 398.767 61.448L399.184 64.84C395.568 65.64 392.144 65.768 385.456 65.768H382.992V62.376ZM382.992 52.2H396.24V55.592H387.216V64.68H382.992V52.2ZM414.701 51.848H433.421V55.24H414.701V51.848ZM411.437 63.304H438.253V66.728H411.437V63.304ZM430.925 51.848H435.117V54.408C435.117 57.224 435.117 60.36 434.189 64.616L429.997 64.232C430.925 60.104 430.925 57.16 430.925 54.408V51.848ZM414.797 75.912H435.949V79.336H414.797V75.912ZM414.797 69.256H419.021V76.264H414.797V69.256Z" fill="white"/>
<defs>
<filter id="filter0_d_5_5" x="479.017" y="36.0064" width="36.6929" height="34.293" filterUnits="userSpaceOnUse" color-interpolation-filters="sRGB">
<feFlood flood-opacity="0" result="BackgroundImageFix"/>
<feColorMatrix in="SourceAlpha" type="matrix" values="0 0 0 0 0 0 0 0 0 0 0 0 0 0 0 0 0 0 127 0" result="hardAlpha"/>
<feOffset dy="4"/>
<feGaussianBlur stdDeviation="2"/>
<feComposite in2="hardAlpha" operator="out"/>
<feColorMatrix type="matrix" values="0 0 0 0 0 0 0 0 0 0 0 0 0 0 0 0 0 0 0.25 0"/>
<feBlend mode="normal" in2="BackgroundImageFix" result="effect1_dropShadow_5_5"/>
<feBlend mode="normal" in="SourceGraphic" in2="effect1_dropShadow_5_5" result="shape"/>
</filter>
<filter id="filter1_d_5_5" x="514.596" y="37.6497" width="36.6929" height="34.293" filterUnits="userSpaceOnUse" color-interpolation-filters="sRGB">
<feFlood flood-opacity="0" result="BackgroundImageFix"/>
<feColorMatrix in="SourceAlpha" type="matrix" values="0 0 0 0 0 0 0 0 0 0 0 0 0 0 0 0 0 0 127 0" result="hardAlpha"/>
<feOffset dy="4"/>
<feGaussianBlur stdDeviation="2"/>
<feComposite in2="hardAlpha" operator="out"/>
<feColorMatrix type="matrix" values="0 0 0 0 0 0 0 0 0 0 0 0 0 0 0 0 0 0 0.25 0"/>
<feBlend mode="normal" in2="BackgroundImageFix" result="effect1_dropShadow_5_5"/>
<feBlend mode="normal" in="SourceGraphic" in2="effect1_dropShadow_5_5" result="shape"/>
</filter>
</defs>
</svg>
