<svg width="797" height="208" viewBox="0 0 797 208" fill="none" xmlns="http://www.w3.org/2000/svg">
<rect width="797" height="208" fill="#FF6F0F"/>
<ellipse cx="564.66" cy="115.357" rx="63.6603" ry="55.6433" fill="white"/>
<ellipse cx="24.9905" cy="38.8655" rx="24.9905" ry="38.8655" transform="matrix(0.822535 0.568714 -0.575573 0.817751 604.889 22.9491)" fill="white"/>
<ellipse cx="24.9905" cy="38.8655" rx="24.9905" ry="38.8655" transform="matrix(0.822535 0.568714 -0.575573 0.817751 559.775 15)" fill="white"/>
<ellipse cx="564.66" cy="117.841" rx="49.625" ry="37.2611" fill="#FFF2E8"/>
<g filter="url(#filter0_d_2_20)">
<ellipse cx="533.081" cy="80.5796" rx="25.0631" ry="23.8471" fill="#25B69E"/>
</g>
<g filter="url(#filter1_d_2_20)">
<ellipse cx="595.237" cy="83.5605" rx="25.0631" ry="23.8471" fill="#25B69E"/>
</g>
<ellipse cx="565.162" cy="74.121" rx="25.0631" ry="30.3057" fill="#25B69E"/>
<ellipse cx="545.612" cy="117.841" rx="5.51389" ry="10.4331" fill="black"/>
<ellipse cx="575.688" cy="117.841" rx="5.51389" ry="10.4331" fill="black"/>
<ellipse cx="560.149" cy="131.752" rx="6.01515" ry="3.47771" fill="#564E4E"/>
<path d="M228.384 88.216H232.672V105.304H228.384V88.216ZM231.424 95.224H236.544V98.68H231.424V95.224ZM222.944 105.848C229.024 105.848 232.96 108.12 232.96 111.864C232.96 115.64 229.024 117.88 222.944 117.88C216.832 117.88 212.896 115.64 212.896 111.864C212.896 108.12 216.832 105.848 222.944 105.848ZM222.944 109.24C219.168 109.24 217.088 110.072 217.088 111.864C217.088 113.624 219.168 114.488 222.944 114.488C226.688 114.488 228.768 113.624 228.768 111.864C228.768 110.072 226.688 109.24 222.944 109.24ZM210.304 100.376H212.768C219.296 100.376 222.528 100.216 226.08 99.448L226.496 102.84C222.88 103.64 219.456 103.768 212.768 103.768H210.304V100.376ZM210.304 90.2H223.552V93.592H214.528V102.68H210.304V90.2ZM242.014 89.848H260.734V93.24H242.014V89.848ZM238.75 101.304H265.566V104.728H238.75V101.304ZM258.238 89.848H262.43V92.408C262.43 95.224 262.43 98.36 261.502 102.616L257.31 102.232C258.238 98.104 258.238 95.16 258.238 92.408V89.848ZM242.11 113.912H263.262V117.336H242.11V113.912ZM242.11 107.256H246.334V114.264H242.11V107.256ZM278.701 89.848H297.421V93.24H278.701V89.848ZM275.437 101.304H302.253V104.728H275.437V101.304ZM294.925 89.848H299.117V92.408C299.117 95.224 299.117 98.36 298.189 102.616L293.997 102.232C294.925 98.104 294.925 95.16 294.925 92.408V89.848ZM278.797 113.912H299.949V117.336H278.797V113.912ZM278.797 107.256H283.021V114.264H278.797V107.256ZM325.451 88.184H329.707V117.912H325.451V88.184ZM320.235 99.576H326.411V103H320.235V99.576ZM311.691 95.896H315.019V97.432C315.019 103.672 312.331 109.976 306.955 112.376L304.683 109.112C309.483 106.904 311.691 101.88 311.691 97.432V95.896ZM312.619 95.896H315.915V97.432C315.915 101.688 318.187 106.488 322.987 108.632L320.747 111.864C315.307 109.56 312.619 103.48 312.619 97.432V95.896ZM305.674 93.048H321.835V96.408H305.674V93.048ZM311.691 88.888H315.947V94.776H311.691V88.888ZM343.816 90.168C348.488 90.168 351.976 93.208 351.976 97.464C351.976 101.752 348.488 104.792 343.816 104.792C339.176 104.792 335.624 101.752 335.624 97.464C335.624 93.208 339.176 90.168 343.816 90.168ZM343.816 93.816C341.544 93.816 339.816 95.16 339.816 97.464C339.816 99.8 341.544 101.144 343.816 101.144C346.088 101.144 347.816 99.8 347.816 97.464C347.816 95.16 346.088 93.816 343.816 93.816ZM354.76 88.184H359.016V117.912H354.76V88.184ZM334.92 111.896L334.408 108.472C339.624 108.472 346.888 108.408 353.128 107.48L353.448 110.552C347.016 111.832 340.04 111.896 334.92 111.896ZM390.072 88.216H394.36V105.304H390.072V88.216ZM393.112 95.224H398.232V98.68H393.112V95.224ZM384.632 105.848C390.712 105.848 394.648 108.12 394.648 111.864C394.648 115.64 390.712 117.88 384.632 117.88C378.52 117.88 374.584 115.64 374.584 111.864C374.584 108.12 378.52 105.848 384.632 105.848ZM384.632 109.24C380.856 109.24 378.776 110.072 378.776 111.864C378.776 113.624 380.856 114.488 384.632 114.488C388.376 114.488 390.456 113.624 390.456 111.864C390.456 110.072 388.376 109.24 384.632 109.24ZM371.992 100.376H374.456C380.984 100.376 384.216 100.216 387.767 99.448L388.184 102.84C384.568 103.64 381.144 103.768 374.456 103.768H371.992V100.376ZM371.992 90.2H385.24V93.592H376.216V102.68H371.992V90.2ZM403.701 89.848H422.421V93.24H403.701V89.848ZM400.437 101.304H427.253V104.728H400.437V101.304ZM419.925 89.848H424.117V92.408C424.117 95.224 424.117 98.36 423.189 102.616L418.997 102.232C419.925 98.104 419.925 95.16 419.925 92.408V89.848ZM403.797 113.912H424.949V117.336H403.797V113.912ZM403.797 107.256H408.021V114.264H403.797V107.256Z" fill="white"/>
<path d="M559.5 115.5C559.5 127.64 549.437 137.5 537 137.5C524.563 137.5 514.5 127.64 514.5 115.5C514.5 103.36 524.563 93.5 537 93.5C549.437 93.5 559.5 103.36 559.5 115.5Z" stroke="#6B007D"/>
<path d="M605.5 115.5C605.5 127.64 595.437 137.5 583 137.5C570.563 137.5 560.5 127.64 560.5 115.5C560.5 103.36 570.563 93.5 583 93.5C595.437 93.5 605.5 103.36 605.5 115.5Z" stroke="#6B007D"/>
<defs>
<filter id="filter0_d_2_20" x="504.018" y="56.7325" width="58.1262" height="55.6943" filterUnits="userSpaceOnUse" color-interpolation-filters="sRGB">
<feFlood flood-opacity="0" result="BackgroundImageFix"/>
<feColorMatrix in="SourceAlpha" type="matrix" values="0 0 0 0 0 0 0 0 0 0 0 0 0 0 0 0 0 0 127 0" result="hardAlpha"/>
<feOffset dy="4"/>
<feGaussianBlur stdDeviation="2"/>
<feComposite in2="hardAlpha" operator="out"/>
<feColorMatrix type="matrix" values="0 0 0 0 0 0 0 0 0 0 0 0 0 0 0 0 0 0 0.25 0"/>
<feBlend mode="normal" in2="BackgroundImageFix" result="effect1_dropShadow_2_20"/>
<feBlend mode="normal" in="SourceGraphic" in2="effect1_dropShadow_2_20" result="shape"/>
</filter>
<filter id="filter1_d_2_20" x="566.174" y="59.7134" width="58.1262" height="55.6943" filterUnits="userSpaceOnUse" color-interpolation-filters="sRGB">
<feFlood flood-opacity="0" result="BackgroundImageFix"/>
<feColorMatrix in="SourceAlpha" type="matrix" values="0 0 0 0 0 0 0 0 0 0 0 0 0 0 0 0 0 0 127 0" result="hardAlpha"/>
<feOffset dy="4"/>
<feGaussianBlur stdDeviation="2"/>
<feComposite in2="hardAlpha" operator="out"/>
<feColorMatrix type="matrix" values="0 0 0 0 0 0 0 0 0 0 0 0 0 0 0 0 0 0 0.25 0"/>
<feBlend mode="normal" in2="BackgroundImageFix" result="effect1_dropShadow_2_20"/>
<feBlend mode="normal" in="SourceGraphic" in2="effect1_dropShadow_2_20" result="shape"/>
</filter>
</defs>
</svg>
